<svg width="680" height="640" viewBox="0 0 680 640" xmlns="http://www.w3.org/2000/svg">
<defs><marker id="arrow" viewBox="0 0 10 10" refX="8" refY="5" markerWidth="6" markerHeight="6" orient="auto-start-reverse"><path d="M2 1L8 5L2 9" fill="none" stroke="#3d3d3a" stroke-width="1.5" stroke-linecap="round" stroke-linejoin="round"/></marker></defs>
<rect width="680" height="640" fill="#ffffff"/>

<rect x="210" y="40" width="260" height="44" rx="8" fill="#F1EFE8" stroke="#5F5E5A" stroke-width="0.5"/>
<text x="340" y="62" text-anchor="middle" dominant-baseline="central" font-family="sans-serif" font-size="14" fill="#2C2C2A">Rama feature</text>
<line x1="340" y1="84" x2="340" y2="134" stroke="#5f5e5a" stroke-width="1.5" marker-end="url(#arrow)"/>

<rect x="210" y="134" width="260" height="44" rx="8" fill="#F1EFE8" stroke="#5F5E5A" stroke-width="0.5"/>
<text x="340" y="156" text-anchor="middle" dominant-baseline="central" font-family="sans-serif" font-size="14" fill="#2C2C2A">Pull request</text>
<line x1="340" y1="178" x2="340" y2="228" stroke="#5f5e5a" stroke-width="1.5" marker-end="url(#arrow)"/>

<rect x="210" y="228" width="260" height="56" rx="8" fill="#FAECE7" stroke="#D85A30" stroke-width="1"/>
<text x="340" y="248" text-anchor="middle" dominant-baseline="central" font-family="sans-serif" font-size="14" font-weight="500" fill="#712B13">CI: calidad y seguridad</text>
<text x="340" y="266" text-anchor="middle" dominant-baseline="central" font-family="sans-serif" font-size="12" fill="#993C1D">fmt · tflint · checkov · OPA</text>
<line x1="340" y1="284" x2="340" y2="334" stroke="#5f5e5a" stroke-width="1.5" marker-end="url(#arrow)"/>

<rect x="210" y="334" width="260" height="44" rx="8" fill="#F1EFE8" stroke="#5F5E5A" stroke-width="0.5"/>
<text x="340" y="356" text-anchor="middle" dominant-baseline="central" font-family="sans-serif" font-size="14" fill="#2C2C2A">Merge a main</text>
<line x1="340" y1="378" x2="340" y2="428" stroke="#5f5e5a" stroke-width="1.5" marker-end="url(#arrow)"/>

<rect x="210" y="428" width="260" height="56" rx="8" fill="#FAECE7" stroke="#D85A30" stroke-width="1"/>
<text x="340" y="448" text-anchor="middle" dominant-baseline="central" font-family="sans-serif" font-size="14" font-weight="500" fill="#712B13">CD: aprobación manual</text>
<text x="340" y="466" text-anchor="middle" dominant-baseline="central" font-family="sans-serif" font-size="12" fill="#993C1D">GitHub environment gate</text>
<line x1="340" y1="484" x2="340" y2="534" stroke="#5f5e5a" stroke-width="1.5" marker-end="url(#arrow)"/>

<rect x="210" y="534" width="260" height="56" rx="8" fill="#F1EFE8" stroke="#5F5E5A" stroke-width="0.5"/>
<text x="340" y="554" text-anchor="middle" dominant-baseline="central" font-family="sans-serif" font-size="14" fill="#2C2C2A">Terraform apply</text>
<text x="340" y="572" text-anchor="middle" dominant-baseline="central" font-family="sans-serif" font-size="12" fill="#444441">Despliega en AWS</text>

<text x="340" y="618" text-anchor="middle" font-family="sans-serif" font-size="12" fill="#5f5e5a">Coral = gate que puede bloquear el flujo (políticas o aprobación)</text>
</svg>
